<svg xmlns="http://www.w3.org/2000/svg" viewBox="0 0 360 220" role="img" aria-labelledby="title"><title id="title">Security and participation: stable work, care, school and a voice in decisions</title><rect width="360" height="220" rx="12" fill="#eef3f0"/><g font-family="Arial,sans-serif" fill="#172c3b" stroke-linecap="round" stroke-linejoin="round"><g fill="white" stroke="#236a6c" stroke-width="3"><rect x="23" y="47" width="132" height="54" rx="8"/><rect x="206" y="47" width="132" height="54" rx="8"/><rect x="23" y="140" width="132" height="54" rx="8"/><rect x="206" y="140" width="132" height="54" rx="8"/></g><path d="M35 65h30v21H35zM43 65v-6h14v6M35 72h30" fill="#d8a76d" stroke="#172c3b" stroke-width="2"/><text x="110" y="80" text-anchor="middle" font-size="16">Stable job</text><path d="M220 70h8v-8h8v8h8v8h-8v8h-8v-8h-8z" fill="#aa4829"/><text x="285" y="80" text-anchor="middle" font-size="16">Care</text><path d="M35 156q8-4 16 0 8-4 16 0v22q-8-4-16 0-8-4-16 0zM51 156v22" fill="#edca72" stroke="#172c3b" stroke-width="2"/><text x="112" y="175" text-anchor="middle" font-size="16">School</text><path d="M217 154h31v23h-18l-10 9v-9h-3z" fill="#d3e4df" stroke="#172c3b" stroke-width="2"/><text x="290" y="175" text-anchor="middle" font-size="16">Voice</text><text x="180" y="25" text-anchor="middle" font-size="15">Can I rely on these opportunities?</text></g></svg>